<?xml version="1.0" standalone="no"?>
<!DOCTYPE svg PUBLIC "-//W3C//DTD SVG 20010904//EN"
 "http://www.w3.org/TR/2001/REC-SVG-20010904/DTD/svg10.dtd">
<svg version="1.0" xmlns="http://www.w3.org/2000/svg"
 width="100.000000pt" height="28.000000pt" viewBox="0 0 343.000000 123.000000"
 preserveAspectRatio="xMidYMid meet">

<g transform="translate(0.000000,123.000000) scale(0.100000,-0.100000)"
fill="#ffffff" stroke="none">
<path d="M165 1207 c-97 -37 -145 -100 -145 -187 0 -103 69 -171 200 -200 107
-23 149 -41 180 -76 55 -63 31 -146 -54 -185 -100 -45 -231 0 -255 87 -6 25
-13 29 -49 32 -38 3 -42 1 -42 -20 1 -34 34 -99 66 -130 81 -76 218 -94 321
-42 101 50 148 142 122 237 -24 92 -80 132 -233 171 -55 13 -111 33 -125 44
-59 43 -63 112 -10 156 86 72 228 49 267 -44 16 -36 20 -40 55 -40 l37 0 0
100 0 100 -40 0 c-30 0 -40 -4 -40 -16 0 -12 -5 -14 -17 -9 -63 27 -95 34
-148 34 -33 0 -74 -6 -90 -12z"/>
<path d="M823 1202 c-65 -23 -125 -64 -169 -116 -194 -226 -59 -584 236 -626
113 -16 212 12 308 89 l52 41 0 -60 0 -60 70 0 70 0 0 45 c0 43 -1 45 -30 45
l-30 0 0 280 0 280 30 0 c29 0 30 2 30 45 l0 45 -70 0 -70 0 0 -60 c0 -33 -3
-60 -6 -60 -4 0 -25 16 -47 36 -65 59 -138 87 -237 91 -64 3 -98 -1 -137 -15z
m243 -92 c58 -25 115 -80 144 -137 36 -70 40 -181 10 -252 -31 -71 -110 -142
-185 -166 -248 -77 -470 182 -354 413 72 145 240 207 385 142z"/>
<path d="M1983 1206 c-104 -34 -195 -114 -241 -214 -23 -49 -27 -71 -27 -152
0 -86 3 -101 32 -162 56 -118 160 -197 286 -218 113 -18 234 23 303 104 l34
40 0 -67 0 -67 40 0 40 0 0 205 0 205 -170 0 c-93 0 -170 -3 -170 -7 0 -4 10
-22 22 -40 l23 -32 105 -3 105 -3 -4 -25 c-11 -78 -83 -168 -165 -206 -175
-82 -397 66 -399 265 -1 170 129 305 293 305 90 0 184 -44 235 -111 19 -25 35
-50 35 -54 0 -5 20 -9 45 -9 l45 0 0 125 0 125 -40 0 -40 0 0 -56 0 -56 -41
36 c-69 58 -123 79 -219 83 -54 2 -101 -2 -127 -11z"/>
<path d="M1460 1165 c0 -45 0 -45 35 -45 l35 0 0 -280 0 -280 -35 0 c-35 0
-35 0 -35 -45 l0 -45 111 0 110 0 -3 42 c-3 40 -5 43 -35 46 l-33 3 0 280 0
279 36 0 35 0 -3 43 -3 42 -107 3 -108 3 0 -46z"/>
<path d="M2547 1203 c-4 -3 -7 -24 -7 -45 0 -37 1 -38 35 -38 l35 0 0 -279 0
-280 -32 -3 c-31 -3 -33 -6 -36 -46 l-3 -42 290 0 291 0 0 115 0 115 -45 0
-45 0 0 -70 0 -70 -170 0 -170 0 0 280 0 280 170 0 170 0 0 -76 0 -75 43 3 42
3 0 115 0 115 -281 3 c-154 1 -283 -1 -287 -5z"/>
<path d="M2720 873 c0 -3 11 -21 26 -40 l25 -33 110 0 109 0 0 40 0 40 -135 0
c-74 0 -135 -3 -135 -7z"/>
<path d="M3160 840 l0 -40 135 0 135 0 -26 40 -27 40 -108 0 -109 0 0 -40z"/>
<path d="M1610 283 c-32 -12 -50 -37 -50 -69 0 -40 19 -60 73 -75 52 -15 67
-26 67 -49 0 -43 -71 -58 -101 -21 -19 24 -49 28 -49 7 0 -7 12 -25 26 -40 21
-20 37 -26 69 -26 32 0 48 6 69 26 49 50 21 113 -58 133 -54 13 -74 41 -47 65
24 22 54 20 76 -4 28 -31 45 -25 45 15 0 30 -3 35 -24 35 -13 0 -36 2 -52 5
-16 2 -36 2 -44 -2z"/>
<path d="M2643 271 c-51 -24 -73 -63 -73 -129 0 -134 180 -184 250 -69 24 39
25 47 5 47 -9 0 -29 -15 -45 -34 -35 -39 -72 -49 -117 -31 -68 29 -80 120 -22
169 46 39 93 35 135 -9 47 -51 64 -47 64 15 0 43 -3 50 -20 50 -11 0 -20 -6
-20 -14 0 -11 -8 -10 -37 5 -46 24 -67 24 -120 0z"/>
<path d="M1030 266 c0 -8 7 -16 15 -20 12 -4 15 -25 15 -101 0 -78 -3 -95 -15
-95 -8 0 -15 -9 -15 -20 0 -17 7 -20 40 -20 33 0 40 3 40 20 0 11 -5 20 -11
20 -6 0 -9 12 -7 28 2 19 9 28 25 30 18 3 27 -7 48 -48 21 -41 30 -51 48 -48
24 3 37 38 14 38 -8 0 -20 13 -27 29 -10 26 -9 31 14 54 35 35 35 89 1 122
-22 22 -32 25 -105 25 -62 0 -80 -3 -80 -14z m163 -47 c22 -27 21 -35 -3 -59
-13 -13 -33 -20 -60 -20 l-40 0 0 48 c0 27 3 52 8 56 13 14 77 -3 95 -25z"/>
<path d="M1290 265 c0 -8 5 -15 10 -15 6 0 10 -40 10 -100 0 -60 -4 -100 -10
-100 -5 0 -10 -9 -10 -20 0 -19 7 -20 105 -20 l105 0 0 45 c0 38 -3 45 -20 45
-15 0 -20 -7 -20 -25 0 -24 -3 -25 -55 -25 l-55 0 0 40 0 40 50 0 c43 0 50 3
50 20 0 17 -7 20 -50 20 l-50 0 0 40 0 40 55 0 c52 0 55 -1 55 -25 0 -18 5
-25 20 -25 17 0 20 7 20 40 l0 40 -105 0 c-87 0 -105 -3 -105 -15z"/>
<path d="M1790 266 c0 -8 5 -18 10 -21 6 -3 10 -48 10 -101 0 -56 -4 -94 -10
-94 -5 0 -10 -9 -10 -20 0 -19 7 -20 100 -20 l100 0 0 45 c0 33 -4 45 -15 45
-9 0 -15 -9 -15 -25 0 -24 -3 -25 -61 -25 l-60 0 3 37 3 38 53 3 c44 3 52 6
52 23 0 16 -7 19 -56 19 l-55 0 3 38 3 37 55 0 c49 0 55 -2 58 -22 6 -41 32
-27 32 17 l0 40 -100 0 c-80 0 -100 -3 -100 -14z"/>
<path d="M2110 266 c0 -8 4 -17 9 -20 13 -8 -60 -196 -76 -196 -7 0 -13 -9
-13 -20 0 -15 7 -20 26 -20 19 0 28 7 35 30 10 29 14 30 68 30 54 0 57 -1 68
-31 9 -24 17 -30 35 -27 25 3 39 38 15 38 -10 0 -30 40 -57 115 l-43 115 -34
0 c-22 0 -33 -5 -33 -14z m73 -111 l16 -45 -40 0 c-29 0 -39 4 -35 13 2 6 10
29 17 49 14 45 22 42 42 -17z"/>
<path d="M2320 265 c0 -8 5 -15 10 -15 6 0 10 -40 10 -100 0 -60 -4 -100 -10
-100 -5 0 -10 -9 -10 -20 0 -17 7 -20 40 -20 33 0 40 3 40 20 0 11 -4 20 -10
20 -5 0 -10 14 -10 30 0 24 4 30 23 30 16 0 29 -12 47 -48 17 -31 32 -48 48
-50 17 -3 22 2 22 17 0 12 -4 21 -10 21 -5 0 -16 12 -23 27 -14 25 -13 29 14
56 31 30 37 64 17 100 -20 39 -40 46 -120 47 -63 0 -78 -3 -78 -15z m155 -35
c39 -33 3 -90 -57 -90 l-38 0 0 56 0 57 40 -6 c23 -3 47 -11 55 -17z"/>
<path d="M2880 265 c0 -8 5 -15 10 -15 6 0 10 -40 10 -100 0 -60 -4 -100 -10
-100 -5 0 -10 -9 -10 -20 0 -17 7 -20 40 -20 33 0 40 3 40 20 0 11 -4 20 -10
20 -5 0 -10 18 -10 40 l0 41 58 -3 57 -3 3 -37 c3 -30 0 -38 -13 -38 -10 0
-15 -7 -13 -18 5 -25 81 -25 86 1 2 10 -3 17 -12 17 -23 0 -24 188 -1 196 8 4
15 12 15 20 0 10 -13 14 -45 14 -32 0 -45 -4 -45 -14 0 -8 7 -16 15 -20 9 -3
15 -19 15 -41 l0 -35 -60 0 -60 0 0 40 c0 22 5 40 10 40 6 0 10 7 10 15 0 11
-11 15 -40 15 -29 0 -40 -4 -40 -15z"/>
</g>
</svg>
