<svg width="273" height="35" viewBox="0 0 273 35" fill="none" xmlns="http://www.w3.org/2000/svg">
<g clip-path="url(#clip0_7051_311021)">
<path d="M24.9732 15.5301C23.6599 15.0298 21.9298 14.6546 20.7415 14.4878C19.4491 14.3002 17.9482 14.1126 16.6558 14.0292C14.7171 13.8833 12.4866 13.7165 10.5688 13.3204C9.83922 13.1745 7.87972 12.7159 7.7338 11.0066C7.60873 9.46397 9.02624 8.44252 10.3395 7.96307C12.1114 7.31685 13.7374 7.19178 14.9881 7.15009C15.9679 7.1084 17.6981 7.17093 19.595 7.77546C21.1793 8.27576 22.6802 9.0679 23.8059 10.9649L30.9768 9.04705C29.8511 5.8785 27.4956 3.16855 23.9935 1.66766C21.3669 0.562835 18.5319 0 15.5093 0C14.6963 0 13.6331 0.0416915 12.8202 0.125074C9.15131 0.458606 6.17037 1.37582 3.77311 3.25194C0.833862 5.54497 -0.187579 9.17213 0.396102 12.6325C0.938091 15.8428 3.04351 18.1775 6.33714 19.3448C7.85888 19.8868 9.60992 20.2412 11.7362 20.4914C13.1745 20.679 14.1543 20.7624 15.405 20.8666C17.2186 21.0125 19.9077 21.3043 21.221 21.7004C22.5134 22.1173 23.5766 22.7427 23.6808 23.9726C23.8267 25.6194 22.3467 26.4116 21.8464 26.6409C20.2829 27.3913 18.2817 27.7665 16.1972 27.7665C12.2365 27.7665 8.85947 26.349 7.35858 23.9934L-0.020813 25.9738C0.792171 28.1417 2.3556 30.1429 4.44018 31.6647C7.37942 33.8118 11.6945 34.9792 16.2597 34.9792C20.1162 34.9792 23.4932 34.2704 26.224 32.6861C29.9137 30.539 31.4563 27.1412 31.081 22.9303C30.7683 19.4491 28.5795 16.9267 24.9524 15.5092L24.9732 15.5301Z" fill="#FF4052"/>
<path d="M44.4432 0.958893L36.7511 34.0411H44.3806L45.6939 28.4544H59.8065L61.1198 34.0411H68.6659L60.9947 0.958893H44.464H44.4432ZM47.1323 22.2215L50.4259 8.15067H55.012L58.3264 22.2215H47.1323Z" fill="#FF4052"/>
<path d="M82.6326 0.958893H75.3365V34.0411H82.6326V0.958893Z" fill="#FF4052"/>
<path d="M159.824 0.958893H130.703V34.0411H159.824V26.7451H137.978V8.04644H159.824V0.958893Z" fill="#FF4052"/>
<path d="M152.924 13.5706H144.899V21.221H152.924V13.5706Z" fill="#FF4052"/>
<path d="M107.21 15.134V21.3252H116.278C115.715 25.2859 111.504 27.704 107.21 27.704C101.581 27.704 96.9953 23.1388 96.9953 17.4896C96.9953 16.9059 97.0369 16.3431 97.1412 15.8011C97.9542 10.9649 102.144 7.27517 107.21 7.27517C110.357 7.27517 113.192 8.71352 115.048 10.944L122.49 8.96367C119.509 3.60632 113.776 -0.0208435 107.21 -0.0208435C97.5372 -0.0208435 89.7201 7.81716 89.7201 17.4687C89.7201 17.573 89.7201 17.6772 89.7201 17.7814C89.8869 27.3079 97.6415 34.9792 107.21 34.9792C114.693 34.9792 122.344 29.9553 123.553 23.1805V15.1132H107.21V15.134Z" fill="#FF4052"/>
<path d="M196.096 6.85825V28.2043H191.823V6.85825H196.096Z" fill="#6A7A7C"/>
<path d="M226.322 6.85825V28.2043H222.049V6.85825H226.322Z" fill="#6A7A7C"/>
<path d="M234.952 27.0369C233.285 26.0989 231.951 24.8064 230.971 23.1388C229.991 21.4711 229.512 19.595 229.512 17.4896C229.512 15.3842 229.991 13.5289 230.971 11.8821C231.951 10.2144 233.285 8.92197 234.952 7.98392C236.62 7.04586 238.454 6.56641 240.456 6.56641C242.457 6.56641 244.312 7.02501 245.98 7.98392C247.647 8.92197 248.961 10.2144 249.92 11.8821C250.879 13.5497 251.379 15.4258 251.379 17.4896C251.379 19.5533 250.899 21.4711 249.92 23.1388C248.961 24.8064 247.627 26.0989 245.959 27.0369C244.291 27.975 242.457 28.4544 240.456 28.4544C238.454 28.4544 236.62 27.975 234.952 27.0369ZM243.854 23.7433C244.833 23.1596 245.605 22.3258 246.147 21.2418C246.689 20.1578 246.98 18.9071 246.98 17.4687C246.98 16.0304 246.709 14.8005 246.147 13.7165C245.605 12.6534 244.833 11.8195 243.854 11.2567C242.874 10.6939 241.748 10.402 240.456 10.402C239.163 10.402 238.038 10.6939 237.037 11.2567C236.057 11.8195 235.286 12.6534 234.723 13.7165C234.181 14.7796 233.889 16.0304 233.889 17.4687C233.889 18.9071 234.16 20.1578 234.723 21.2418C235.265 22.3258 236.036 23.1596 237.037 23.7433C238.017 24.327 239.163 24.6188 240.456 24.6188C241.748 24.6188 242.874 24.327 243.854 23.7433Z" fill="#6A7A7C"/>
<path d="M272.829 28.2251H268.556L258.862 13.5706V28.2251H254.589V6.8374H258.862L268.556 21.5128V6.8374H272.829V28.2251Z" fill="#6A7A7C"/>
<path d="M214.92 16.5932C214.107 16.2805 213.023 16.0512 212.272 15.947C211.563 15.8428 210.542 15.7177 209.646 15.6551C208.374 15.5718 206.936 15.4467 205.643 15.1965C203.955 14.8422 203.538 13.9875 203.496 13.3413C203.413 12.3198 204.142 11.4443 205.456 10.9649C206.623 10.5479 207.707 10.4437 208.583 10.4229C209.187 10.4229 210.375 10.4229 211.689 10.8398C212.543 11.1108 213.627 11.5694 214.482 12.8201L218.422 11.7778C217.65 9.90172 216.191 8.44252 214.273 7.62954C212.647 6.94163 210.855 6.58725 208.937 6.58725C208.374 6.58725 207.707 6.6081 207.228 6.67063C204.768 6.89994 202.975 7.52531 201.578 8.60929C199.932 9.90172 199.16 12.0488 199.535 14.321C199.848 16.2388 201.099 17.6355 203.121 18.3651C204.017 18.6778 205.06 18.9071 206.54 19.0947C207.457 19.1989 208.103 19.2615 208.895 19.3448C209.729 19.4074 211.772 19.595 212.752 19.9077C213.189 20.0536 214.524 20.4497 214.628 21.7213C214.711 22.6176 214.211 23.3681 213.21 23.8475C212.168 24.3478 210.855 24.6188 209.375 24.6188C206.79 24.6188 204.58 23.7016 203.475 22.2216L199.41 23.3055C199.932 24.4729 200.849 25.5777 201.995 26.4115C203.809 27.7248 206.519 28.4753 209.416 28.4753C211.918 28.4753 214.023 27.9958 215.67 27.0369C217.859 25.7653 218.859 23.7641 218.609 21.0959C218.422 19.053 217.129 17.5104 214.878 16.6349L214.92 16.5932Z" fill="#6A7A7C"/>
<path d="M184.214 6.85825L179.524 24.1811H177.501L172.79 6.89994H168.642L174.229 28.2251H182.817L188.404 6.85825H184.214Z" fill="#6A7A7C"/>
</g>
<defs>
<clipPath id="clip0_7051_311021">
<rect width="272.829" height="35" fill="white"/>
</clipPath>
</defs>
</svg>
